<svg width="222" height="93" viewBox="0 0 222 93" fill="none" xmlns="http://www.w3.org/2000/svg">
<g clip-path="url(#clip0_3339_397)">
<path d="M202.96 45.7361C202.234 44.4107 201.079 43.6734 199.715 43.1374C198.61 42.7014 197.106 42.5534 195.984 42.9814C194.142 43.6814 192.776 45.108 192.776 47.1934C192.776 48.0334 193.006 48.7601 193.391 49.3801C193.476 50.3641 193.814 50.9961 194.415 51.7721C194.808 52.2801 195.444 52.6508 196.03 52.9134C197.26 53.4708 198.651 54.016 200.008 53.496C201.667 52.864 202.682 51.7907 203.292 50.1401C203.828 48.6881 203.704 47.0907 202.96 45.7361Z" fill="#F1AC56"/>
<path d="M167.333 16.2852C172.879 12.2065 181.986 15.2199 181.986 25.0332C184.653 19.5265 196.306 20.8598 195.706 30.0865C199.319 27.6998 204.306 29.8599 204.146 34.9665C209.039 32.3399 218.026 37.7398 216.067 45.7118C213.413 44.8465 210.279 45.2998 207.706 47.4198C206.146 41.3532 199.746 39.4732 194.146 39.8598C189.787 40.1652 186.093 43.4599 184.693 46.9132C182.253 45.3785 179.039 45.0452 175.479 45.8598C169.373 47.2465 165.813 51.0332 165.039 56.2999C162.306 51.1932 154.813 53.3532 153.919 58.0865C151.986 51.1932 145.146 49.1932 140.479 49.6999C136.466 50.1265 131.319 52.3665 129.799 58.2465C126.479 55.0585 121.106 52.7118 115.253 53.1932C110.853 53.5532 106.773 55.8198 104.279 59.1652C103.613 53.2852 92.226 51.0732 87.9607 56.5932C85.906 54.1932 82.4393 52.3398 78.6527 52.0198C74.866 51.7118 69.7994 52.6865 66.8794 56.1398C66.0527 50.6598 58.5327 47.2852 53.306 49.2852C51.666 43.0452 39.266 38.5265 33.4794 48.7532C32.8127 42.5265 27.9194 40.0865 23.4794 40.0865C16.7994 40.0865 13.2527 45.1932 13.0393 48.2999C11.4393 47.4065 9.6527 47.1932 7.94604 47.5265C5.78737 39.6465 15.0793 33.6052 20.3727 37.1932C19.0393 29.1932 28.8127 25.8598 33.3193 31.1932C31.4927 24.0332 38.9607 18.9799 44.7594 21.1132C46.7874 13.7119 59.186 9.37852 65.4794 17.6332C66.3727 12.2999 71.5727 8.80653 77.986 9.69986C80.9727 10.1132 83.3194 11.6052 84.826 13.4732C87.0394 7.4465 96.4007 6.17982 99.4794 11.5265C101.413 0.766487 119.773 -4.16816 127.146 7.21984C129.599 5.97985 132.666 5.61849 136.146 6.52649C141.706 7.97982 144.653 12.6865 145.039 16.2999C148.426 6.52652 164.279 8.29988 167.319 16.2852H167.333Z" fill="#D87639"/>
<path d="M33.4793 48.7532C39.2659 38.5265 51.6659 43.0452 53.3059 49.2852C58.5326 47.2852 66.0526 50.6598 66.8793 56.1398C69.7993 52.6865 74.8659 51.7118 78.6526 52.0198C82.4392 52.3398 85.9059 54.1932 87.9606 56.5932C92.2259 51.0732 103.613 53.2852 104.279 59.1652C106.773 55.8198 110.853 53.5532 115.253 53.1932C121.106 52.7118 126.479 55.0585 129.799 58.2465C131.319 52.3665 136.466 50.1265 140.479 49.6999C145.146 49.1932 151.986 51.1932 153.919 58.0865C154.813 53.3532 162.306 51.1932 165.039 56.2999C165.813 51.0332 169.373 47.2465 175.479 45.8598C179.039 45.0452 182.253 45.3785 184.693 46.9132C186.027 43.6212 189.457 40.5039 193.55 39.9519C190.175 36.6865 183.862 37.1572 181.986 41.0332C181.986 31.2199 172.879 28.2065 167.333 32.2852H167.319C164.279 24.2999 148.426 22.5265 145.039 32.2999C144.653 28.6865 141.706 23.9798 136.146 22.5265C132.666 21.6185 129.599 21.9798 127.146 23.2198C119.773 11.8318 101.413 16.7665 99.4793 27.5265C96.4006 22.1798 87.0393 23.4465 84.826 29.4732C83.3193 27.6052 80.9726 26.1132 77.9859 25.6999C71.5726 24.8065 66.3726 28.2999 65.4793 33.6332C59.1859 25.3785 46.7873 29.7119 44.7593 37.1132C38.9606 34.9799 31.4926 40.0332 33.3192 47.1932L33.1513 47.0252C33.2953 47.5692 33.4126 48.1372 33.4793 48.7532Z" fill="#B74F2F"/>
<path d="M192.366 50.304C192.366 61.532 158.787 70.6373 117.366 70.6373C75.9457 70.6373 42.3657 61.532 42.3657 50.304C42.3657 39.076 75.9457 29.9707 117.366 29.9707C158.787 29.9707 192.366 39.076 192.366 50.304Z" fill="#612D26"/>
<path d="M216.067 45.7119C219.546 46.8319 222.239 50.1932 221.919 54.9666C221.426 62.5132 216.466 64.7666 211.359 64.0332C211.359 65.3919 211.053 66.8466 210.373 68.2999C208.014 73.4066 199.706 75.4199 191.706 71.8599C189.734 82.4599 175.706 83.0453 170.253 79.6186C167.506 85.8466 158.401 87.6332 153.533 83.6732C151.439 89.8732 140.239 91.1132 136.306 84.8599C132.653 90.1932 126.426 92.8599 116.306 91.8599C110.734 91.2999 107.306 89.4466 105.279 87.1532C96.586 95.4332 81.9326 90.0199 79.6393 82.8599C77.3193 86.0199 71.986 88.0199 65.4793 86.8599C61.8393 86.2065 58.1726 83.7399 56.5193 80.1532C51.2126 86.5266 38.2526 83.2852 37.3193 75.5265C31.0926 77.8065 19.6393 77.1932 15.986 71.6999C14.706 69.7799 13.9727 67.9132 13.666 66.1532C5.61266 66.7666 0.439342 63.1799 0.146008 57.1932C-0.0939918 52.3399 3.71934 48.3132 7.94601 47.5265C9.65267 47.1932 11.4393 47.4066 13.0393 48.2999C13.2526 45.1932 16.7993 40.0866 23.4793 40.0866C27.9193 40.0866 32.8127 42.5266 33.4793 48.7532C39.266 38.5266 51.666 43.0452 53.306 49.2853C58.5326 47.2853 66.0527 50.6599 66.8793 56.1399C69.7993 52.6865 74.866 51.7119 78.6526 52.0199C82.4393 52.3399 85.906 54.1932 87.9606 56.5932C92.226 51.0732 103.613 53.2852 104.279 59.1652C106.773 55.8199 110.853 53.5532 115.253 53.1932C121.106 52.7119 126.479 55.0586 129.799 58.2466C131.319 52.3666 136.466 50.1266 140.479 49.6999C145.146 49.1932 151.986 51.1932 153.919 58.0866C154.813 53.3532 162.306 51.1932 165.039 56.2999C165.813 51.0332 169.373 47.2465 175.479 45.8599C179.039 45.0452 182.253 45.3786 184.693 46.9132C186.093 43.4599 189.787 40.1652 194.146 39.8599C199.746 39.4732 206.146 41.3532 207.706 47.4199C210.279 45.2999 213.413 44.8465 216.067 45.7119Z" fill="#E88D3A"/>
<path d="M216.685 45.9705C216.114 52.9412 211.454 55.0345 206.649 54.3452C206.649 55.6412 206.357 57.0266 205.71 58.4106C203.461 63.2772 195.543 65.1972 187.919 61.8039C186.038 71.9065 172.67 72.4652 167.473 69.1999C164.854 75.1346 156.178 76.8372 151.538 73.0612C149.542 78.9706 138.87 80.1532 135.121 74.1932C131.637 79.2759 125.703 81.8185 116.059 80.8652C110.747 80.3305 107.481 78.5639 105.55 76.3785C97.2645 84.2692 83.2979 79.1106 81.1139 72.2879C78.9032 75.2986 73.8192 77.2052 67.6192 76.0985C64.1485 75.4772 60.6539 73.1266 59.0792 69.7079C54.0206 75.7812 41.6712 72.6945 40.7805 65.2985C34.8459 67.4705 23.9299 66.8866 20.4486 61.6506C19.2286 59.8212 18.5285 58.0426 18.2379 56.3666C10.8325 56.9292 5.99655 53.7626 5.41255 48.4146C2.31922 50.0199 -0.0434496 53.3425 0.145884 57.1932C0.439217 63.1799 5.61254 66.7666 13.6659 66.1532C13.9725 67.9132 14.7059 69.7799 15.9859 71.6999C19.6392 77.1932 31.0925 77.8065 37.3192 75.5265C38.2525 83.2852 51.2125 86.5266 56.5192 80.1532C58.1725 83.7399 61.8392 86.2065 65.4792 86.8599C71.9859 88.0199 77.3192 86.0199 79.6392 82.8599C81.9325 90.0199 96.5859 95.4332 105.279 87.1532C107.306 89.4466 110.734 91.2999 116.306 91.8599C126.426 92.8599 132.653 90.1932 136.306 84.8599C140.239 91.1132 151.439 89.8732 153.533 83.6732C158.401 87.6332 167.506 85.8466 170.253 79.6186C175.706 83.0453 189.734 82.4599 191.706 71.8599C199.706 75.4199 208.014 73.4066 210.373 68.2999C211.053 66.8466 211.359 65.3919 211.359 64.0332C216.466 64.7666 221.426 62.5132 221.919 54.9666C222.221 50.4866 219.854 47.2745 216.685 45.9705Z" fill="#D87639"/>
<path d="M29.939 50.2626L29.963 50.28L30.019 50.3199L29.939 50.2626Z" fill="#F1AC56"/>
<path d="M30.4631 50.6667C30.2965 50.5387 30.1285 50.4094 29.9631 50.2801C29.4245 49.7988 28.7831 49.4801 28.1084 49.3494C28.3578 48.7174 28.4885 47.9761 28.4071 47.3041C28.2058 45.6187 27.5924 44.5121 26.2084 43.5014C25.1271 42.7121 23.6378 42.7987 22.4018 42.9934C21.3191 43.1654 20.2844 43.9547 19.5111 44.6761C17.6884 46.3747 16.6151 49.2801 17.9698 51.5748C19.0578 53.4134 21.4378 54.1241 23.4778 53.6881C23.4231 54.2788 23.4885 54.8761 23.7271 55.4521C24.0738 56.2881 24.2005 56.5107 24.7791 57.2281C25.3231 57.9027 26.3271 58.1734 27.1458 58.2081C27.4111 58.2188 28.0672 58.3987 27.2312 58.1787C28.7552 58.5801 30.2964 57.9267 31.1191 56.5974C31.6804 55.6894 31.6631 54.6827 31.6991 53.6654C31.7258 52.9214 31.5298 52.1081 31.1271 51.4787C30.9605 51.1574 30.7378 50.8867 30.4631 50.6667Z" fill="#F1AC56"/>
<path d="M55.3167 58.4679L55.0553 58.2746C54.7033 57.8506 54.2727 57.5012 53.7753 57.2625C53.35 55.9492 52.478 54.8092 51.1954 54.0065C50.3794 53.4959 49.266 53.2252 48.25 53.3199C48.274 53.0679 48.294 52.8145 48.2767 52.5705C48.1754 51.1345 47.67 49.9786 46.7167 48.9026C45.1433 47.1279 42.0807 47.2279 40.49 48.8719C39.3194 50.0799 39.1833 51.7065 39.7833 53.0319C39.5073 54.1999 39.9327 55.4826 40.7354 56.3666C41.4247 57.1292 42.67 57.4812 43.6833 57.4145C43.166 58.6239 43.062 60.0385 43.4113 61.2559C44.1033 63.6532 46.2914 64.6332 48.5047 64.5092C49.3127 64.6439 50.1487 64.6532 51.0234 64.6319L51.1514 64.6865H51.1594C52.5527 65.2599 54.106 65.1292 55.3167 63.9186C56.682 62.5532 56.958 59.7852 55.3167 58.4679Z" fill="#F1AC56"/>
<path d="M74.8765 57.0932C73.5699 57.3932 72.2526 58.0132 71.1872 58.8919C70.8632 58.6839 70.5112 58.5092 70.1152 58.3478C71.6912 58.9905 70.7405 58.5718 70.3552 58.3785C69.3565 57.8785 68.6738 57.7305 67.5725 57.6145C66.7272 57.5265 65.6699 57.8385 64.9566 58.2799C64.1072 58.8065 63.1525 59.7732 63.0032 60.7932C62.8405 61.8998 62.8392 62.0732 63.0045 63.1772C63.1979 64.4812 64.5472 65.5879 65.7418 65.9159C66.1192 66.0199 66.5206 66.0559 66.9232 66.0385L67.0712 66.0932C67.9379 66.3198 68.7379 66.2158 69.5286 65.9652C69.7992 66.5012 70.1325 67.0039 70.5472 67.4412C71.0499 68.6305 72.0326 69.6425 73.4979 70.1279C76.1232 70.9972 79.4605 70.5279 81.6579 68.8892C84.9725 66.4212 86.1832 62.1305 83.2405 58.8318C81.2832 56.6385 77.5312 56.4838 74.8765 57.0932Z" fill="#F1AC56"/>
<path d="M58.8139 52.6028C57.2819 52.6028 56.002 53.8815 56.002 55.4162C56.002 56.9495 57.2819 58.2281 58.8139 58.2281C60.3473 58.2281 61.6273 56.9495 61.6273 55.4162C61.6273 53.8815 60.3473 52.6028 58.8139 52.6028Z" fill="#F1AC56"/>
<path d="M131.702 66.6413C130.311 66.6413 129.15 67.8012 129.15 69.1932C129.15 70.5852 130.311 71.7452 131.702 71.7452C133.093 71.7452 134.254 70.5852 134.254 69.1932C134.254 67.8012 133.093 66.6413 131.702 66.6413Z" fill="#F1AC56"/>
<path d="M33.6723 58.6679L33.5736 58.7412C32.515 59.0372 31.8323 60.4506 32.8043 61.4239C33.7803 62.3999 35.2017 61.7105 35.4923 60.6479L35.5603 60.5559C36.3683 59.4626 34.7643 57.8572 33.6723 58.6679Z" fill="#F1AC56"/>
<path d="M99.599 62.5666C98.571 62.1106 97.7896 61.8559 96.6336 61.8292C95.5909 61.8066 94.5243 62.2333 93.6243 62.6999C91.1696 63.9706 89.9283 67.3559 91.4643 69.7639C91.9337 70.4986 92.5683 71.0773 93.311 71.4493C93.9016 72.0826 94.663 72.5533 95.5043 72.7333C96.7296 72.9933 97.795 72.7826 98.9123 72.2306L99.1003 72.1092C99.9589 71.4386 100.063 71.3639 99.4123 71.8812C99.7977 71.6426 100.154 71.3426 100.49 71.0372C101.686 69.9439 102.296 68.7079 102.451 67.0839C102.624 65.2666 101.203 63.2773 99.599 62.5666Z" fill="#F1AC56"/>
<path d="M126.107 62.1184C124.407 60.3611 122.023 59.541 119.646 59.2917C116.646 58.981 114.185 59.8344 112.405 62.3584C112.191 62.6597 112.014 62.9691 111.854 63.2824C110.538 62.6851 108.967 62.597 107.538 62.845C107.225 62.8997 106.928 62.9997 106.647 63.129C104.691 63.817 103.366 65.9744 103.603 68.0304C103.863 70.2864 105.237 72.1837 107.549 72.697C109.534 73.137 111.438 72.629 112.99 71.345L113.022 71.3117C114.026 72.4183 115.381 73.2517 116.987 73.6077C117.395 73.6997 117.799 73.745 118.205 73.769C119.09 73.933 119.996 73.889 120.836 73.6343C120.97 73.645 121.099 73.6583 121.235 73.665C126.91 73.905 129.905 66.0437 126.107 62.1184Z" fill="#F1AC56"/>
<path d="M147.669 58.2907C147.641 58.0814 147.602 57.8734 147.535 57.668C147.178 56.5854 146.113 55.4974 144.859 55.632C143.497 55.7774 142.314 56.276 141.579 57.52C141.181 58.1974 141.089 58.9267 141.187 59.6187C138.961 59.7507 137.117 61.4481 137.046 63.7307C136.987 63.9214 136.937 64.1107 136.901 64.2987C136.567 65.9867 137.355 68.0694 139.251 68.4387C140.474 68.6787 141.557 68.78 142.783 68.5454C145.042 68.116 146.405 66.0493 146.491 63.86C146.515 63.2747 146.373 62.7147 146.13 62.2001C147.15 61.5934 147.826 60.4441 147.761 59.2774L147.771 59.1974C147.761 58.8174 147.639 57.9761 147.669 58.2907Z" fill="#F1AC56"/>
<path d="M189.146 52.2092C188.275 52.2092 187.47 52.5093 186.808 52.9973L186.708 52.7426C186.579 52.4679 186.273 51.6106 186.662 52.7853C186.473 52.2146 186.193 51.5693 185.849 51.0546C184.241 48.6506 181.735 47.6546 178.905 48.0826C180.551 47.8346 178.669 48.0453 178.118 48.2306C177.281 48.5093 176.524 48.9026 175.894 49.5333C174.687 50.7386 174.147 52.6173 174.595 54.2719L174.536 54.6199C173.894 54.5852 173.202 54.6546 172.722 54.8292C171.566 55.2506 170.838 55.8639 170.11 56.7359C169.695 56.6026 169.266 56.5106 168.813 56.5106C166.706 56.5106 164.918 58.0746 164.544 60.0853C164.127 59.7026 163.659 59.3732 163.216 59.1346C161.814 58.3799 160.263 58.1452 158.714 58.5399C157.024 58.9692 155.614 60.6973 155.682 62.4746L155.627 62.5413C155.04 63.3693 155.079 64.5306 155.285 65.4626C155.511 66.5012 156.398 67.4159 157.274 67.9679C158.29 68.6092 159.627 68.8559 160.811 68.7359C162.179 68.5999 163.822 68.2532 164.782 67.1599C165.373 66.4866 165.851 65.8146 166.065 64.9253C166.119 64.6946 166.137 64.4786 166.157 64.2613C166.898 64.8439 167.814 65.2092 168.813 65.2092C169.493 65.2092 170.13 65.0319 170.708 64.7439C170.939 64.9106 171.183 65.0532 171.442 65.1732C171.855 65.8599 172.643 66.5772 173.46 66.7092C174.634 66.9026 175.597 67.1132 176.798 66.8732C178.567 66.5199 179.683 64.8066 180.263 63.2386C180.484 62.6413 180.557 62.0452 180.521 61.4706C181.355 61.4679 182.181 61.3639 182.877 61.2079C184.162 60.9199 185.408 60.0279 186.255 58.8986C186.987 59.6786 188.014 60.1773 189.146 60.1773C191.318 60.1773 193.13 58.3652 193.13 56.1932C193.13 54.0212 191.318 52.2092 189.146 52.2092Z" fill="#F1AC56"/>
<mask id="mask0_3339_397" style="mask-type:luminance" maskUnits="userSpaceOnUse" x="60" y="21" width="103" height="50">
<path d="M160.638 61.4427C156.304 48.3094 148.891 37.8147 139.531 30.8827C131.291 24.7894 121.544 21.4427 111.038 21.4427C99.5845 21.4427 89.0245 25.4281 80.3458 32.6161C72.0125 39.5227 65.4245 49.3627 61.4378 61.4427C61.2112 62.1494 60.9845 62.8827 60.7578 63.6427C74.5178 67.936 94.7712 70.6427 117.371 70.6427C134.144 70.6427 149.638 69.1494 162.131 66.6294C161.651 64.7494 161.158 63.016 160.638 61.4427Z" fill="white"/>
</mask>
<g mask="url(#mask0_3339_397)">
<path d="M111.039 167.591C122.966 167.591 160.818 165.516 169.632 159.812C168.078 120.923 164.49 79.4867 158.744 62.0694C151.02 38.66 133.055 23.44 111.039 23.44C89.0258 23.44 71.0578 38.66 63.3364 62.0694C57.5884 79.4867 54.0031 120.923 52.4458 159.812C61.2605 165.516 99.1151 167.591 111.039 167.591Z" fill="#CD5C29"/>
<path d="M59.7791 161.18C61.2471 124.504 64.6298 85.4266 70.0498 68.9986C77.3338 46.9226 94.2791 32.5666 115.039 32.5666C135.802 32.5666 152.747 46.9226 160.031 68.9986C161.023 72.0106 160.244 66.6173 158.744 62.0693C151.02 38.66 133.055 23.4399 111.039 23.4399C89.0258 23.4399 71.0578 38.66 63.3364 62.0693C57.5884 79.4866 54.0031 120.923 52.4458 159.812C55.5391 161.813 61.8178 162.499 59.7791 161.18Z" fill="#E6894A"/>
<path d="M54.4952 158.676C64.1672 163.525 98.4138 165.591 111.039 165.591C123.664 165.591 157.914 163.525 167.586 158.676C165.724 113.3 161.719 77.472 156.844 62.696C149.263 39.716 131.711 25.44 111.039 25.44C90.3671 25.44 72.8152 39.716 65.2352 62.696C60.3592 77.472 56.3538 113.3 54.4952 158.676ZM111.039 169.591C103.711 169.591 61.5685 168.097 51.3592 161.491C50.7658 161.107 50.4192 160.437 50.4485 159.732C51.3365 137.497 54.1872 83.412 61.4352 61.4427C69.5752 36.768 88.5831 21.44 111.039 21.44C133.498 21.44 152.503 36.768 160.643 61.4427C167.891 83.412 170.742 137.497 171.632 159.732C171.659 160.437 171.312 161.107 170.719 161.491C160.514 168.097 118.37 169.591 111.039 169.591Z" fill="#100F0D"/>
<path d="M67.9565 66.1561C75.5632 67.2814 89.5392 70.0187 98.4739 73.6041C101.597 66.5254 102.219 58.3974 99.7005 50.7921C99.7712 55.0641 99.2578 58.3107 98.4192 60.7294C86.9565 55.2721 76.0885 52.3868 72.2445 51.5721C70.3725 54.6988 68.1899 61.2881 67.9565 66.1561Z" fill="#100F0D"/>
<path d="M154.123 66.1561C146.517 67.2814 132.542 70.0187 123.605 73.6041C120.485 66.5254 119.859 58.3974 122.378 50.7921C122.307 55.0641 122.821 58.3107 123.659 60.7294C135.123 55.2721 145.993 52.3868 149.837 51.5721C151.709 54.6988 153.891 61.2881 154.123 66.1561Z" fill="#100F0D"/>
</g>
<path d="M54.9633 61.8839L54.818 62.0426C50.1753 57.7639 46.4713 53.0986 44.0366 48.8026C52.118 48.0186 63.0113 50.9573 65.8047 52.2399L66.646 52.9839C63.8393 56.1986 60.014 59.2373 54.9633 61.8839Z" fill="#FDEAB3"/>
<path d="M66.646 52.984L65.8046 52.24C56.2873 46.7133 51.4873 41.5853 47.0713 35.1787C53.69 34.6987 63.4459 35.96 71.7473 40.696L72.8859 40.9054C72.0179 44.9454 70.0806 49.096 66.646 52.984Z" fill="#FDEAB3"/>
<path d="M72.1017 27.7614C73.4163 31.6027 73.8776 36.1761 72.8856 40.9054L71.747 40.696C62.9976 34.448 57.5163 28.6641 52.5776 24.3187C59.0416 23.3987 65.4537 23.9681 72.1017 27.7614Z" fill="#FDEAB3"/>
<path d="M90.3418 65.6452C86.9632 72.3972 77.0858 77.1519 64.5552 69.4466C60.9978 67.2692 57.7272 64.7225 54.8179 62.0425L54.9632 61.8839C60.0139 59.2372 63.8392 56.1985 66.6459 52.9839C70.0805 49.0959 72.0178 44.9452 72.8858 40.9052C73.8778 36.1759 73.4165 31.6026 72.1019 27.7612C75.4059 29.6452 78.7525 32.3185 82.1952 36.0012C90.1779 44.5679 94.1672 58.0119 90.3418 65.6452Z" fill="#CD5C29"/>
<path d="M80.9604 70.8787C77.7658 71.7907 72.5085 71.9867 65.6098 67.7467C62.8391 66.0427 60.1644 64.0586 57.6671 61.9013C72.2684 53.3493 75.9218 41.3 74.4271 31.696C76.4738 33.2013 78.5751 35.0626 80.7298 37.3733C83.1698 39.9893 85.2964 43.196 86.8831 46.6387C90.0578 53.532 90.6951 60.4747 88.5524 64.7587C87.0804 67.6933 84.3151 69.9253 80.9604 70.8787ZM64.1205 53.7147C61.8445 55.948 59.0138 58.0666 55.5604 60.0066C52.4738 57.0866 49.7378 53.9107 47.5604 50.6773C54.0418 50.7893 61.2378 52.6667 64.1205 53.7147ZM50.9431 37.1053C56.8045 37.272 64.2578 38.7213 70.7578 42.4333L71.1231 42.556C70.3018 45.264 68.9351 47.9773 66.9191 50.5933L66.8151 50.5093C59.0578 46.004 54.6351 41.8747 50.9431 37.1053ZM58.0858 26.6387C57.8284 26.3973 57.5751 26.1613 57.3231 25.9293C61.4458 25.864 66.1485 26.656 71.2765 29.6227C72.0311 32.356 72.3098 35.328 71.9765 38.38C66.1698 34.1454 61.8778 30.1653 58.0858 26.6387ZM90.5178 44.9667C88.7551 41.14 86.3831 37.5707 83.6565 34.6467C74.1045 24.3987 64.4351 20.604 52.3045 22.3413C51.5311 22.452 50.8938 23.0027 50.6698 23.7507C50.4484 24.4987 50.6831 25.3107 51.2685 25.824C52.5751 26.9734 53.9245 28.228 55.3618 29.5653C56.9871 31.0773 58.6951 32.668 60.5778 34.3307C55.5084 33.1827 50.6644 32.9174 46.9244 33.188C46.2111 33.24 45.5778 33.6707 45.2658 34.3187C44.9591 34.964 45.0084 35.7254 45.4244 36.3187C48.1644 40.2894 51.1231 43.896 55.3565 47.4453C51.5858 46.82 47.4658 46.464 43.8538 46.816C43.1805 46.88 42.5858 47.2827 42.2711 47.8827C41.9871 48.4347 41.9711 49.0853 42.2298 49.6426L42.3045 49.792C46.8258 57.78 54.7524 65.7667 63.5164 71.1533C71.6511 76.1547 78.0884 75.8573 82.0604 74.7266C86.4844 73.4653 90.1564 70.4853 92.1271 66.548C94.8471 61.1253 94.2418 53.056 90.5178 44.9667Z" fill="#100F0D"/>
<path d="M167.115 61.8839L167.261 62.0426C171.905 57.7639 175.607 53.0986 178.042 48.8026C169.963 48.0186 159.069 50.9573 156.277 52.2399L155.433 52.9839C158.239 56.1986 162.066 59.2373 167.115 61.8839Z" fill="#FDEAB3"/>
<path d="M155.433 52.984L156.277 52.24C165.793 46.7133 170.591 41.5853 175.011 35.1787C168.391 34.6987 158.633 35.96 150.334 40.696L149.193 40.9054C150.064 44.9454 151.998 49.096 155.433 52.984Z" fill="#FDEAB3"/>
<path d="M149.976 27.7614C148.662 31.6027 148.2 36.1761 149.192 40.9054L150.334 40.696C159.08 34.448 164.563 28.6641 169.5 24.3187C163.039 23.3987 156.627 23.9681 149.976 27.7614Z" fill="#FDEAB3"/>
<path d="M131.738 65.6452C135.118 72.3972 144.993 77.1519 157.526 69.4466C161.083 67.2692 164.354 64.7225 167.261 62.0425L167.115 61.8839C162.066 59.2372 158.239 56.1985 155.433 52.9839C151.998 49.0959 150.063 44.9452 149.193 40.9052C148.201 36.1759 148.662 31.6026 149.977 27.7612C146.673 29.6452 143.329 32.3185 139.886 36.0012C131.905 44.5679 127.914 58.0119 131.738 65.6452Z" fill="#CD5C29"/>
<path d="M133.526 64.7587C131.383 60.4747 132.021 53.532 135.195 46.6387C136.782 43.196 138.908 39.9893 141.35 37.3733C143.503 35.0626 145.607 33.2013 147.651 31.696C146.157 41.3 149.81 53.3493 164.414 61.9013C161.916 64.0586 159.239 66.0427 156.469 67.7467C149.573 71.9867 144.315 71.7907 141.118 70.8787C137.766 69.9253 135.001 67.6933 133.526 64.7587ZM174.521 50.6773C172.342 53.9107 169.605 57.0866 166.518 60.0066C163.066 58.0666 160.235 55.948 157.961 53.7147C160.842 52.6667 168.039 50.7893 174.521 50.6773ZM155.263 50.5093L155.162 50.5933C153.143 47.9773 151.779 45.264 150.957 42.556C151.078 42.516 151.203 42.5 151.321 42.4333C157.821 38.7213 165.274 37.272 171.138 37.1053C167.446 41.8747 163.023 46.004 155.263 50.5093ZM150.105 38.38C149.769 35.328 150.05 32.356 150.805 29.6227C155.933 26.656 160.635 25.864 164.755 25.9293C164.506 26.1613 164.25 26.3973 163.995 26.6387C160.201 30.1653 155.911 34.1454 150.105 38.38ZM129.951 66.548C131.925 70.4853 135.594 73.4653 140.021 74.7266C143.99 75.8573 150.43 76.1547 158.566 71.1533C167.326 65.7667 175.255 57.78 179.774 49.792L179.85 49.6426C180.107 49.0853 180.094 48.4347 179.807 47.8827C179.495 47.2827 178.902 46.88 178.227 46.816C174.612 46.464 170.492 46.82 166.724 47.4453C170.959 43.896 173.917 40.2894 176.657 36.3187C177.071 35.7254 177.123 34.964 176.813 34.3187C176.503 33.6707 175.87 33.24 175.154 33.188C171.414 32.9174 166.571 33.1827 161.503 34.3307C163.383 32.668 165.094 31.0773 166.719 29.5653C168.156 28.228 169.503 26.9734 170.813 25.824C171.399 25.3107 171.63 24.4987 171.408 23.7507C171.184 23.0027 170.547 22.452 169.777 22.3413C157.646 20.604 147.976 24.3987 138.422 34.6467C135.698 37.5707 133.323 41.14 131.563 44.9667C127.837 53.056 127.235 61.1253 129.951 66.548Z" fill="#100F0D"/>
<path d="M216.067 45.7119C219.546 46.8319 222.239 50.1932 221.919 54.9666C221.426 62.5132 216.466 64.7666 211.359 64.0332C211.359 65.3919 211.053 66.8466 210.373 68.2999C208.014 73.4066 199.706 75.4199 191.706 71.8599C189.734 82.4599 175.706 83.0453 170.253 79.6186C167.506 85.8466 158.401 87.6332 153.533 83.6732C151.439 89.8732 140.239 91.1132 136.306 84.8599C132.653 90.1932 126.426 92.8599 116.306 91.8599C110.734 91.2999 107.306 89.4466 105.279 87.1532C96.586 95.4332 81.9326 90.0199 79.6393 82.8599C77.3193 86.0199 71.986 88.0199 65.4793 86.8599C61.8393 86.2065 58.1726 83.7399 56.5193 80.1532C51.2126 86.5266 38.2526 83.2852 37.3193 75.5265C31.0926 77.8065 19.6393 77.1932 15.986 71.6999C14.706 69.7799 13.9727 67.9132 13.666 66.1532C5.61266 66.7666 0.439342 63.1799 0.146008 57.1932C-0.0939918 52.3399 3.71934 48.3132 7.94601 47.5265C9.65267 47.1932 11.4393 47.4066 13.0393 48.2999C13.2526 45.1932 16.7993 40.0866 23.4793 40.0866C27.9193 40.0866 32.8127 42.5266 33.4793 48.7532C39.266 38.5266 51.666 43.0452 53.306 49.2853C58.5326 47.2853 66.0527 50.6599 66.8793 56.1399C69.7993 52.6865 74.866 51.7119 78.6526 52.0199C82.4393 52.3399 85.906 54.1932 87.9606 56.5932C92.226 51.0732 103.613 53.2852 104.279 59.1652C106.773 55.8199 110.853 53.5532 115.253 53.1932C121.106 52.7119 126.479 55.0586 129.799 58.2466C131.319 52.3666 136.466 50.1266 140.479 49.6999C145.146 49.1932 151.986 51.1932 153.919 58.0866C154.813 53.3532 162.306 51.1932 165.039 56.2999C165.813 51.0332 169.373 47.2465 175.479 45.8599C179.039 45.0452 182.253 45.3786 184.693 46.9132C186.093 43.4599 189.787 40.1652 194.146 39.8599C199.746 39.4732 206.146 41.3532 207.706 47.4199C210.279 45.2999 213.413 44.8465 216.067 45.7119Z" fill="#E88D3A"/>
<path d="M216.685 45.9705C216.114 52.9412 211.454 55.0345 206.649 54.3452C206.649 55.6412 206.357 57.0266 205.71 58.4106C203.461 63.2772 195.543 65.1972 187.919 61.8039C186.038 71.9065 172.67 72.4652 167.473 69.1999C164.854 75.1346 156.178 76.8372 151.538 73.0612C149.542 78.9706 138.87 80.1532 135.121 74.1932C131.637 79.2759 125.703 81.8185 116.059 80.8652C110.747 80.3305 107.481 78.5639 105.55 76.3785C97.2645 84.2692 83.2979 79.1106 81.1139 72.2879C78.9032 75.2986 73.8192 77.2052 67.6192 76.0985C64.1485 75.4772 60.6539 73.1266 59.0792 69.7079C54.0206 75.7812 41.6712 72.6945 40.7805 65.2985C34.8459 67.4705 23.9299 66.8866 20.4486 61.6506C19.2286 59.8212 18.5285 58.0426 18.2379 56.3666C10.8325 56.9292 5.99655 53.7626 5.41255 48.4146C2.31922 50.0199 -0.0434496 53.3425 0.145884 57.1932C0.439217 63.1799 5.61254 66.7666 13.6659 66.1532C13.9725 67.9132 14.7059 69.7799 15.9859 71.6999C19.6392 77.1932 31.0925 77.8065 37.3192 75.5265C38.2525 83.2852 51.2125 86.5266 56.5192 80.1532C58.1725 83.7399 61.8392 86.2065 65.4792 86.8599C71.9859 88.0199 77.3192 86.0199 79.6392 82.8599C81.9325 90.0199 96.5859 95.4332 105.279 87.1532C107.306 89.4466 110.734 91.2999 116.306 91.8599C126.426 92.8599 132.653 90.1932 136.306 84.8599C140.239 91.1132 151.439 89.8732 153.533 83.6732C158.401 87.6332 167.506 85.8466 170.253 79.6186C175.706 83.0453 189.734 82.4599 191.706 71.8599C199.706 75.4199 208.014 73.4066 210.373 68.2999C211.053 66.8466 211.359 65.3919 211.359 64.0332C216.466 64.7666 221.426 62.5132 221.919 54.9666C222.221 50.4866 219.854 47.2745 216.685 45.9705Z" fill="#D87639"/>
<path d="M29.939 50.2626L29.963 50.28L30.019 50.3199L29.939 50.2626Z" fill="#F1AC56"/>
<path d="M30.4631 50.6667C30.2965 50.5387 30.1285 50.4094 29.9631 50.2801C29.4245 49.7988 28.7831 49.4801 28.1084 49.3494C28.3578 48.7174 28.4885 47.9761 28.4071 47.3041C28.2058 45.6187 27.5924 44.5121 26.2084 43.5014C25.1271 42.7121 23.6378 42.7987 22.4018 42.9934C21.3191 43.1654 20.2844 43.9547 19.5111 44.6761C17.6884 46.3747 16.6151 49.2801 17.9698 51.5748C19.0578 53.4134 21.4378 54.1241 23.4778 53.6881C23.4231 54.2788 23.4885 54.8761 23.7271 55.4521C24.0738 56.2881 24.2005 56.5107 24.7791 57.2281C25.3231 57.9027 26.3271 58.1734 27.1458 58.2081C27.4111 58.2188 28.0672 58.3987 27.2312 58.1787C28.7552 58.5801 30.2964 57.9267 31.1191 56.5974C31.6804 55.6894 31.6631 54.6827 31.6991 53.6654C31.7258 52.9214 31.5298 52.1081 31.1271 51.4787C30.9605 51.1574 30.7378 50.8867 30.4631 50.6667Z" fill="#F1AC56"/>
<path d="M55.3167 58.4679L55.0553 58.2746C54.7033 57.8506 54.2727 57.5012 53.7753 57.2625C53.35 55.9492 52.478 54.8092 51.1954 54.0065C50.3794 53.4959 49.266 53.2252 48.25 53.3199C48.274 53.0679 48.294 52.8145 48.2767 52.5705C48.1754 51.1345 47.67 49.9786 46.7167 48.9026C45.1433 47.1279 42.0807 47.2279 40.49 48.8719C39.3194 50.0799 39.1833 51.7065 39.7833 53.0319C39.5073 54.1999 39.9327 55.4826 40.7354 56.3666C41.4247 57.1292 42.67 57.4812 43.6833 57.4145C43.166 58.6239 43.062 60.0385 43.4113 61.2559C44.1033 63.6532 46.2914 64.6332 48.5047 64.5092C49.3127 64.6439 50.1487 64.6532 51.0234 64.6319L51.1514 64.6865H51.1594C52.5527 65.2599 54.106 65.1292 55.3167 63.9186C56.682 62.5532 56.958 59.7852 55.3167 58.4679Z" fill="#F1AC56"/>
<path d="M74.8765 57.0932C73.5699 57.3932 72.2526 58.0132 71.1872 58.8919C70.8632 58.6839 70.5112 58.5092 70.1152 58.3478C71.6912 58.9905 70.7405 58.5718 70.3552 58.3785C69.3565 57.8785 68.6738 57.7305 67.5725 57.6145C66.7272 57.5265 65.6699 57.8385 64.9566 58.2799C64.1072 58.8065 63.1525 59.7732 63.0032 60.7932C62.8405 61.8998 62.8392 62.0732 63.0045 63.1772C63.1979 64.4812 64.5472 65.5879 65.7418 65.9159C66.1192 66.0199 66.5206 66.0559 66.9232 66.0385L67.0712 66.0932C67.9379 66.3198 68.7379 66.2158 69.5286 65.9652C69.7992 66.5012 70.1325 67.0039 70.5472 67.4412C71.0499 68.6305 72.0326 69.6425 73.4979 70.1279C76.1232 70.9972 79.4605 70.5279 81.6579 68.8892C84.9725 66.4212 86.1832 62.1305 83.2405 58.8318C81.2832 56.6385 77.5312 56.4838 74.8765 57.0932Z" fill="#F1AC56"/>
<path d="M58.8139 52.6028C57.2819 52.6028 56.002 53.8815 56.002 55.4162C56.002 56.9495 57.2819 58.2281 58.8139 58.2281C60.3473 58.2281 61.6273 56.9495 61.6273 55.4162C61.6273 53.8815 60.3473 52.6028 58.8139 52.6028Z" fill="#F1AC56"/>
<path d="M131.702 66.6413C130.311 66.6413 129.15 67.8012 129.15 69.1932C129.15 70.5852 130.311 71.7452 131.702 71.7452C133.093 71.7452 134.254 70.5852 134.254 69.1932C134.254 67.8012 133.093 66.6413 131.702 66.6413Z" fill="#F1AC56"/>
<path d="M33.6723 58.6679L33.5736 58.7412C32.515 59.0372 31.8323 60.4506 32.8043 61.4239C33.7803 62.3999 35.2017 61.7105 35.4923 60.6479L35.5603 60.5559C36.3683 59.4626 34.7643 57.8572 33.6723 58.6679Z" fill="#F1AC56"/>
<path d="M99.599 62.5666C98.571 62.1106 97.7896 61.8559 96.6336 61.8292C95.5909 61.8066 94.5243 62.2333 93.6243 62.6999C91.1696 63.9706 89.9283 67.3559 91.4643 69.7639C91.9337 70.4986 92.5683 71.0773 93.311 71.4493C93.9016 72.0826 94.663 72.5533 95.5043 72.7333C96.7296 72.9933 97.795 72.7826 98.9123 72.2306L99.1003 72.1092C99.9589 71.4386 100.063 71.3639 99.4123 71.8812C99.7977 71.6426 100.154 71.3426 100.49 71.0372C101.686 69.9439 102.296 68.7079 102.451 67.0839C102.624 65.2666 101.203 63.2773 99.599 62.5666Z" fill="#F1AC56"/>
<path d="M126.107 62.1184C124.407 60.3611 122.023 59.541 119.646 59.2917C116.646 58.981 114.185 59.8344 112.405 62.3584C112.191 62.6597 112.014 62.9691 111.854 63.2824C110.538 62.6851 108.967 62.597 107.538 62.845C107.225 62.8997 106.928 62.9997 106.647 63.129C104.691 63.817 103.366 65.9744 103.603 68.0304C103.863 70.2864 105.237 72.1837 107.549 72.697C109.534 73.137 111.438 72.629 112.99 71.345L113.022 71.3117C114.026 72.4183 115.381 73.2517 116.987 73.6077C117.395 73.6997 117.799 73.745 118.205 73.769C119.09 73.933 119.996 73.889 120.836 73.6343C120.97 73.645 121.099 73.6583 121.235 73.665C126.91 73.905 129.905 66.0437 126.107 62.1184Z" fill="#F1AC56"/>
<path d="M147.669 58.2907C147.641 58.0814 147.602 57.8734 147.535 57.668C147.178 56.5854 146.113 55.4974 144.859 55.632C143.497 55.7774 142.314 56.276 141.579 57.52C141.181 58.1974 141.089 58.9267 141.187 59.6187C138.961 59.7507 137.117 61.4481 137.046 63.7307C136.987 63.9214 136.937 64.1107 136.901 64.2987C136.567 65.9867 137.355 68.0694 139.251 68.4387C140.474 68.6787 141.557 68.78 142.783 68.5454C145.042 68.116 146.405 66.0493 146.491 63.86C146.515 63.2747 146.373 62.7147 146.13 62.2001C147.15 61.5934 147.826 60.4441 147.761 59.2774L147.771 59.1974C147.761 58.8174 147.639 57.9761 147.669 58.2907Z" fill="#F1AC56"/>
<path d="M189.146 52.2092C188.275 52.2092 187.47 52.5093 186.808 52.9973L186.708 52.7426C186.579 52.4679 186.273 51.6106 186.662 52.7853C186.473 52.2146 186.193 51.5693 185.849 51.0546C184.241 48.6506 181.735 47.6546 178.905 48.0826C180.551 47.8346 178.669 48.0453 178.118 48.2306C177.281 48.5093 176.524 48.9026 175.894 49.5333C174.687 50.7386 174.147 52.6173 174.595 54.2719L174.536 54.6199C173.894 54.5852 173.202 54.6546 172.722 54.8292C171.566 55.2506 170.838 55.8639 170.11 56.7359C169.695 56.6026 169.266 56.5106 168.813 56.5106C166.706 56.5106 164.918 58.0746 164.544 60.0853C164.127 59.7026 163.659 59.3732 163.216 59.1346C161.814 58.3799 160.263 58.1452 158.714 58.5399C157.024 58.9692 155.614 60.6973 155.682 62.4746L155.627 62.5413C155.04 63.3693 155.079 64.5306 155.285 65.4626C155.511 66.5012 156.398 67.4159 157.274 67.9679C158.29 68.6092 159.627 68.8559 160.811 68.7359C162.179 68.5999 163.822 68.2532 164.782 67.1599C165.373 66.4866 165.851 65.8146 166.065 64.9253C166.119 64.6946 166.137 64.4786 166.157 64.2613C166.898 64.8439 167.814 65.2092 168.813 65.2092C169.493 65.2092 170.13 65.0319 170.708 64.7439C170.939 64.9106 171.183 65.0532 171.442 65.1732C171.855 65.8599 172.643 66.5772 173.46 66.7092C174.634 66.9026 175.597 67.1132 176.798 66.8732C178.567 66.5199 179.683 64.8066 180.263 63.2386C180.484 62.6413 180.557 62.0452 180.521 61.4706C181.355 61.4679 182.181 61.3639 182.877 61.2079C184.162 60.9199 185.408 60.0279 186.255 58.8986C186.987 59.6786 188.014 60.1773 189.146 60.1773C191.318 60.1773 193.13 58.3652 193.13 56.1932C193.13 54.0212 191.318 52.2092 189.146 52.2092Z" fill="#F1AC56"/>
<path d="M202.96 45.7361C202.234 44.4107 201.079 43.6734 199.715 43.1374C198.61 42.7014 197.106 42.5534 195.984 42.9814C194.142 43.6814 192.776 45.108 192.776 47.1934C192.776 48.0334 193.006 48.7601 193.391 49.3801C193.476 50.3641 193.814 50.9961 194.415 51.7721C194.808 52.2801 195.444 52.6508 196.03 52.9134C197.26 53.4708 198.651 54.016 200.008 53.496C201.667 52.864 202.682 51.7907 203.292 50.1401C203.828 48.6881 203.704 47.0907 202.96 45.7361Z" fill="#F1AC56"/>
</g>
<defs>
<clipPath id="clip0_3339_397">
<rect width="221.81" height="91.3497" fill="white" transform="translate(0.135254 0.717285)"/>
</clipPath>
</defs>
</svg>
