<svg width="222" height="137" viewBox="0 0 222 137" fill="none" xmlns="http://www.w3.org/2000/svg">
<g clip-path="url(#clip0_3339_125)">
<path d="M167.318 61.128C172.864 57.0494 181.971 60.0627 181.971 69.876C184.638 64.3694 196.291 65.7027 195.691 74.9294C199.304 72.5427 204.291 74.7027 204.131 79.8094C209.024 77.1827 218.011 82.5827 216.052 90.556C213.398 89.6894 210.264 90.1427 207.691 92.2627C206.131 86.196 199.731 84.3161 194.131 84.7027C189.772 85.0081 186.078 88.3027 184.678 91.756C182.238 90.2227 179.024 89.8894 175.464 90.7027C169.358 92.0894 165.798 95.876 165.024 101.143C162.291 96.036 154.798 98.196 153.904 102.929C151.971 96.036 145.131 94.036 140.464 94.5427C136.451 94.9694 131.304 97.2094 129.784 103.089C126.464 99.9014 121.091 97.5561 115.238 98.0361C110.838 98.3961 106.758 100.663 104.264 104.008C103.598 98.128 92.2109 95.9161 87.9442 101.436C85.8909 99.0361 82.4242 97.1827 78.6376 96.8627C74.8509 96.556 69.7842 97.5294 66.8642 100.983C66.0376 95.504 58.5176 92.128 53.2909 94.128C51.6509 87.8894 39.2509 83.3694 33.4642 93.596C32.7976 87.3694 27.9042 84.9294 23.4642 84.9294C16.7842 84.9294 13.2376 90.036 13.0242 93.1427C11.4242 92.2494 9.63756 92.0361 7.9309 92.3694C5.77223 84.4894 15.0642 78.4494 20.3576 82.0361C19.0242 74.0361 28.7976 70.7027 33.3042 76.0361C31.4776 68.8761 38.9442 63.8227 44.7442 65.956C46.7722 58.556 59.1709 54.2227 65.4642 62.476C66.3576 57.1427 71.5576 53.6494 77.9709 54.5427C80.9576 54.956 83.3042 56.4494 84.8109 58.316C87.0242 52.2894 96.3856 51.0227 99.4642 56.3694C101.398 45.6107 119.758 40.6747 127.131 52.0627C129.584 50.8227 132.651 50.4614 136.131 51.3694C141.691 52.8227 144.638 57.5294 145.024 61.1427C148.411 51.3694 164.264 53.1427 167.304 61.128H167.318Z" fill="#D87639"/>
<path d="M33.4641 93.596C39.2508 83.3694 51.6508 87.8894 53.2908 94.128C58.5175 92.128 66.0375 95.504 66.8641 100.983C69.7841 97.5294 74.8508 96.556 78.6375 96.8627C82.4241 97.1827 85.8908 99.0361 87.9441 101.436C92.2108 95.9161 103.597 98.128 104.264 104.008C106.757 100.663 110.837 98.3961 115.237 98.0361C121.091 97.5561 126.464 99.9014 129.784 103.089C131.304 97.2094 136.451 94.9694 140.464 94.5427C145.131 94.036 151.971 96.036 153.904 102.929C154.797 98.196 162.291 96.036 165.024 101.143C165.797 95.876 169.357 92.0894 175.464 90.7027C179.024 89.8894 182.237 90.2227 184.677 91.756C186.012 88.464 189.441 85.3467 193.535 84.7947C190.16 81.5294 183.847 82.0014 181.971 85.876C181.971 76.0627 172.864 73.0494 167.317 77.128H167.304C164.264 69.1427 148.411 67.3694 145.024 77.1427C144.637 73.5294 141.691 68.8227 136.131 67.3694C132.651 66.4614 129.584 66.8227 127.131 68.0627C119.757 56.6747 101.397 61.6107 99.4641 72.3694C96.3855 67.0227 87.0241 68.2894 84.8108 74.316C83.3041 72.4494 80.9575 70.956 77.9708 70.5427C71.5575 69.6494 66.3575 73.1427 65.4641 78.476C59.1708 70.2227 46.7721 74.556 44.7441 81.956C38.9441 79.8227 31.4775 84.8761 33.3042 92.0361L33.1361 91.8681C33.2801 92.4121 33.3975 92.98 33.4641 93.596Z" fill="#B74F2F"/>
<path d="M192.351 95.1466C192.351 106.375 158.772 115.48 117.351 115.48C75.9306 115.48 42.3506 106.375 42.3506 95.1466C42.3506 83.9186 75.9306 74.8133 117.351 74.8133C158.772 74.8133 192.351 83.9186 192.351 95.1466Z" fill="#612D26"/>
<path d="M216.052 90.5558C219.531 91.6745 222.224 95.0358 221.904 99.8091C221.411 107.356 216.451 109.61 211.344 108.876C211.344 110.234 211.038 111.689 210.358 113.142C207.998 118.249 199.691 120.262 191.691 116.702C189.719 127.302 175.691 127.889 170.238 124.461C167.491 130.689 158.386 132.476 153.518 128.516C151.424 134.716 140.224 135.956 136.291 129.702C132.638 135.036 126.411 137.702 116.291 136.702C110.719 136.142 107.291 134.289 105.264 131.996C96.5709 140.277 81.9175 134.862 79.6242 127.702C77.3042 130.862 71.9709 132.862 65.4642 131.702C61.8242 131.049 58.1575 128.582 56.5042 124.996C51.1975 131.369 38.2375 128.128 37.3042 120.369C31.0775 122.649 19.6242 122.036 15.9709 116.542C14.6909 114.622 13.9575 112.756 13.6509 110.996C5.59753 111.61 0.424205 108.022 0.130871 102.036C-0.109129 97.1825 3.70421 93.1558 7.93087 92.3692C9.63754 92.0358 11.4242 92.2491 13.0242 93.1425C13.2375 90.0358 16.7842 84.9292 23.4642 84.9292C27.9042 84.9292 32.7975 87.3692 33.4642 93.5958C39.2509 83.3692 51.6509 87.8892 53.2909 94.1278C58.5175 92.1278 66.0375 95.5038 66.8642 100.982C69.7842 97.5291 74.8509 96.5558 78.6375 96.8625C82.4242 97.1825 85.8909 99.0358 87.9442 101.436C92.2109 95.9158 103.598 98.1278 104.264 104.008C106.758 100.662 110.838 98.3958 115.238 98.0358C121.091 97.5558 126.464 99.9011 129.784 103.089C131.304 97.2091 136.451 94.9691 140.464 94.5425C145.131 94.0358 151.971 96.0358 153.904 102.929C154.798 98.1958 162.291 96.0358 165.024 101.142C165.798 95.8758 169.358 92.0892 175.464 90.7025C179.024 89.8892 182.238 90.2225 184.678 91.7558C186.078 88.3025 189.772 85.0078 194.131 84.7025C199.731 84.3158 206.131 86.1958 207.691 92.2625C210.264 90.1425 213.398 89.6892 216.052 90.5558Z" fill="#E88D3A"/>
<path d="M216.669 90.8131C216.099 97.7838 211.439 99.8772 206.633 99.1878C206.633 100.484 206.341 101.869 205.695 103.253C203.444 108.12 195.528 110.04 187.904 106.646C186.023 116.749 172.655 117.308 167.457 114.042C164.839 119.977 156.163 121.68 151.523 117.904C149.527 123.813 138.855 124.996 135.105 119.036C131.621 124.118 125.688 126.661 116.044 125.708C110.732 125.173 107.465 123.406 105.535 121.222C97.2494 129.113 83.2827 123.953 81.0987 117.13C78.8867 120.141 73.8041 122.048 67.6041 120.942C64.1334 120.32 60.6387 117.969 59.0641 114.55C54.0054 120.624 41.6561 117.537 40.7654 110.141C34.8307 112.313 23.9147 111.729 20.4334 106.493C19.2134 104.665 18.5134 102.886 18.2214 101.209C10.8174 101.772 5.98141 98.6052 5.39741 93.2572C2.30408 94.8625 -0.0585863 98.1852 0.130747 102.036C0.42408 108.023 5.5974 111.61 13.6507 110.996C13.9574 112.756 14.6908 114.622 15.9708 116.542C19.6241 122.036 31.0774 122.649 37.3041 120.369C38.2374 128.128 51.1974 131.369 56.5041 124.996C58.1574 128.582 61.8241 131.049 65.4641 131.702C71.9707 132.862 77.3041 130.862 79.6241 127.702C81.9174 134.862 96.5707 140.277 105.264 131.996C107.291 134.289 110.719 136.142 116.291 136.702C126.411 137.702 132.637 135.036 136.291 129.702C140.224 135.956 151.424 134.716 153.517 128.516C158.385 132.476 167.491 130.689 170.237 124.461C175.691 127.889 189.719 127.302 191.691 116.702C199.691 120.262 207.997 118.249 210.357 113.142C211.037 111.689 211.344 110.234 211.344 108.876C216.451 109.61 221.411 107.356 221.904 99.8091C222.205 95.3291 219.839 92.1171 216.669 90.8131Z" fill="#D87639"/>
<path d="M55.3016 103.311L55.0403 103.117C54.6883 102.693 54.2576 102.344 53.7603 102.105C53.335 100.792 52.463 99.6521 51.1803 98.8494C50.3643 98.3401 49.251 98.0681 48.235 98.1641C48.259 97.9107 48.2776 97.6574 48.2616 97.4134C48.1603 95.9774 47.655 94.8214 46.7016 93.7454C45.1283 91.9707 42.0656 92.0707 40.475 93.7147C39.3043 94.9227 39.167 96.5494 39.7683 97.8747C39.4923 99.0427 39.9176 100.325 40.7203 101.209C41.4096 101.972 42.655 102.324 43.6683 102.257C43.151 103.467 43.047 104.881 43.3963 106.099C44.0883 108.496 46.2763 109.476 48.4896 109.352C49.2976 109.487 50.1336 109.496 51.0083 109.475L51.1363 109.529H51.1416C52.5376 110.103 54.091 109.972 55.3016 108.761C56.6656 107.396 56.943 104.628 55.3016 103.311Z" fill="#F1AC56"/>
<path d="M74.8614 101.936C73.5534 102.236 72.2374 102.856 71.1721 103.735C70.8481 103.527 70.4961 103.352 70.1001 103.191C71.6761 103.835 70.7254 103.415 70.3401 103.223C69.3414 102.723 68.6587 102.573 67.5574 102.457C66.7121 102.369 65.6547 102.681 64.9414 103.123C64.0921 103.649 63.1374 104.617 62.9881 105.636C62.8254 106.743 62.8241 106.916 62.9894 108.02C63.1827 109.324 64.5321 110.431 65.7267 110.759C66.1041 110.863 66.5054 110.899 66.9081 110.881L67.0547 110.936C67.9227 111.164 68.7214 111.06 69.5134 110.808C69.784 111.344 70.1174 111.847 70.5321 112.284C71.0347 113.473 72.0174 114.485 73.4827 114.971C76.108 115.84 79.4454 115.371 81.6427 113.732C84.9574 111.264 86.1667 106.973 83.2254 103.675C81.2681 101.481 77.5161 101.327 74.8614 101.936Z" fill="#F1AC56"/>
<path d="M58.7988 97.4467C57.2668 97.4467 55.9868 98.7254 55.9868 100.259C55.9868 101.792 57.2668 103.071 58.7988 103.071C60.3308 103.071 61.6108 101.792 61.6108 100.259C61.6108 98.7254 60.3308 97.4467 58.7988 97.4467Z" fill="#F1AC56"/>
<path d="M131.687 111.484C130.296 111.484 129.135 112.644 129.135 114.036C129.135 115.428 130.296 116.588 131.687 116.588C133.077 116.588 134.239 115.428 134.239 114.036C134.239 112.644 133.077 111.484 131.687 111.484Z" fill="#F1AC56"/>
<path d="M99.5839 107.409C98.5545 106.953 97.7745 106.699 96.6185 106.673C95.5759 106.649 94.5092 107.076 93.6092 107.543C91.1545 108.813 89.9132 112.199 91.4492 114.608C91.9185 115.341 92.5532 115.92 93.2959 116.292C93.8865 116.925 94.6479 117.396 95.4892 117.576C96.7145 117.837 97.7799 117.625 98.8972 117.073L99.0852 116.952C99.9425 116.283 100.048 116.207 99.3972 116.725C99.7825 116.485 100.139 116.185 100.475 115.88C101.671 114.787 102.281 113.551 102.436 111.927C102.609 110.111 101.188 108.12 99.5839 107.409Z" fill="#F1AC56"/>
<path d="M126.092 106.961C124.392 105.204 122.008 104.384 119.631 104.135C116.631 103.824 114.169 104.677 112.388 107.201C112.176 107.504 111.997 107.812 111.839 108.125C110.523 107.528 108.952 107.441 107.523 107.688C107.209 107.743 106.913 107.843 106.632 107.972C104.676 108.66 103.351 110.817 103.588 112.873C103.848 115.129 105.22 117.027 107.533 117.54C109.519 117.98 111.423 117.472 112.975 116.188L113.007 116.155C114.011 117.261 115.365 118.095 116.972 118.451C117.38 118.543 117.784 118.588 118.189 118.613C119.075 118.777 119.981 118.732 120.821 118.477C120.955 118.488 121.084 118.503 121.22 118.508C126.895 118.748 129.888 110.888 126.092 106.961Z" fill="#F1AC56"/>
<path d="M147.653 103.133C147.625 102.924 147.587 102.716 147.52 102.511C147.163 101.428 146.097 100.34 144.844 100.475C143.481 100.62 142.299 101.119 141.564 102.363C141.164 103.04 141.073 103.769 141.172 104.461C138.944 104.593 137.101 106.291 137.031 108.573C136.972 108.764 136.921 108.953 136.885 109.141C136.552 110.831 137.34 112.912 139.236 113.283C140.459 113.521 141.541 113.623 142.768 113.389C145.027 112.959 146.389 110.893 146.476 108.703C146.499 108.117 146.357 107.559 146.115 107.043C147.135 106.436 147.811 105.287 147.745 104.12L147.756 104.04C147.745 103.66 147.624 102.819 147.653 103.133Z" fill="#F1AC56"/>
<path d="M189.131 97.0519C188.261 97.0519 187.455 97.3519 186.794 97.8399L186.694 97.5852C186.565 97.3106 186.258 96.4532 186.647 97.6279C186.458 97.0586 186.178 96.4119 185.833 95.8972C184.226 93.4932 181.721 92.4986 178.889 92.9252C180.537 92.6772 178.654 92.8892 178.103 93.0732C177.266 93.3519 176.51 93.7452 175.879 94.3759C174.673 95.5812 174.133 97.4599 174.581 99.1159L174.522 99.4626C173.879 99.4279 173.187 99.4985 172.707 99.6732C171.551 100.093 170.823 100.707 170.095 101.579C169.681 101.447 169.251 101.353 168.798 101.353C166.691 101.353 164.903 102.917 164.53 104.928C164.111 104.545 163.645 104.216 163.202 103.977C161.799 103.224 160.249 102.988 158.699 103.383C157.01 103.812 155.599 105.54 155.666 107.317L155.613 107.384C155.026 108.212 155.065 109.373 155.27 110.305C155.497 111.344 156.383 112.259 157.259 112.811C158.275 113.452 159.611 113.699 160.797 113.579C162.165 113.444 163.807 113.096 164.767 112.004C165.358 111.331 165.837 110.657 166.05 109.768C166.105 109.537 166.122 109.321 166.142 109.104C166.883 109.687 167.799 110.052 168.798 110.052C169.478 110.052 170.115 109.875 170.694 109.587C170.925 109.753 171.169 109.896 171.427 110.016C171.841 110.703 172.629 111.42 173.445 111.553C174.619 111.745 175.582 111.956 176.783 111.716C178.553 111.363 179.669 109.649 180.249 108.081C180.47 107.484 180.542 106.889 180.506 106.313C181.341 106.311 182.165 106.207 182.862 106.051C184.147 105.763 185.394 104.871 186.241 103.741C186.973 104.521 187.998 105.02 189.131 105.02C191.303 105.02 193.115 103.208 193.115 101.036C193.115 98.8639 191.303 97.0519 189.131 97.0519Z" fill="#F1AC56"/>
<path d="M202.946 90.5787C202.219 89.2533 201.064 88.516 199.7 87.98C198.595 87.544 197.091 87.396 195.97 87.824C194.127 88.524 192.762 89.9507 192.762 92.036C192.762 92.876 192.991 93.6027 193.376 94.224C193.462 95.2067 193.799 95.84 194.4 96.616C194.794 97.1227 195.43 97.4934 196.015 97.756C197.246 98.3134 198.636 98.8587 199.994 98.34C201.652 97.7067 202.666 96.6333 203.276 94.9827C203.814 93.5307 203.69 91.9333 202.946 90.5787Z" fill="#F1AC56"/>
<mask id="mask0_3339_125" style="mask-type:luminance" maskUnits="userSpaceOnUse" x="52" y="0" width="119" height="116">
<path d="M167.564 80.0453C165.911 64.3786 163.658 49.6586 160.631 40.512C152.484 15.8333 133.484 0.499992 111.018 0.499992C88.5644 0.499992 69.5644 15.8333 61.4178 40.512C58.1378 50.472 55.7511 67.032 54.0444 84.232C53.3511 91.272 52.7645 98.432 52.2725 105.272C65.2178 111.365 89.5111 115.485 117.351 115.485C137.898 115.485 156.511 113.245 170.059 109.619C169.444 100.152 168.618 89.912 167.564 80.0453Z" fill="white"/>
</mask>
<g mask="url(#mask0_3339_125)">
<path d="M111.024 146.655C122.951 146.655 160.803 144.58 169.618 138.876C168.063 99.9867 164.475 58.552 158.73 41.1333C151.006 17.7254 133.04 2.50536 111.024 2.50536C89.0111 2.50536 71.0431 17.7254 63.3218 41.1333C57.5738 58.552 53.9885 99.9867 52.4312 138.876C61.2458 144.58 99.1005 146.655 111.024 146.655Z" fill="#CD5C29"/>
<path d="M111.024 122.388C87.6005 122.388 67.0538 109.86 55.4312 91.0253C54.0738 106.149 53.0765 122.728 52.4312 138.876C61.2458 144.58 99.1005 146.655 111.024 146.655C122.951 146.655 160.803 144.58 169.618 138.876C168.972 122.728 167.975 106.149 166.62 91.0253C154.996 109.86 134.448 122.388 111.024 122.388Z" fill="#BA4927"/>
<path d="M59.7645 140.244C61.2325 103.568 64.6152 64.4907 70.0352 48.0627C77.3192 25.9867 94.2645 11.6307 115.024 11.6307C135.787 11.6307 152.732 25.9867 160.016 48.0627C161.008 51.0747 160.23 45.6814 158.73 41.1333C151.006 17.7253 133.04 2.50536 111.024 2.50536C89.0111 2.50536 71.0431 17.7253 63.3218 41.1333C57.5738 58.552 53.9885 99.9867 52.4312 138.876C55.5245 140.877 61.8032 141.563 59.7645 140.244Z" fill="#E6894A"/>
<path d="M54.4805 137.74C64.1525 142.589 98.3992 144.655 111.025 144.655C123.65 144.655 157.899 142.589 167.571 137.74C165.71 92.364 161.705 56.536 156.83 41.76C149.249 18.7813 131.697 4.50536 111.025 4.50536C90.3525 4.50536 72.8005 18.7813 65.2205 41.76C60.3445 56.536 56.3392 92.364 54.4805 137.74ZM111.025 148.655C103.697 148.655 61.5538 147.161 51.3445 140.556C50.7512 140.172 50.4045 139.503 50.4339 138.796C51.3219 116.561 54.1725 62.476 61.4205 40.5067C69.5605 15.8333 88.5685 0.505356 111.025 0.505356C133.483 0.505356 152.489 15.8333 160.629 40.5067C167.877 62.476 170.727 116.561 171.618 138.796C171.645 139.503 171.298 140.172 170.705 140.556C160.498 147.161 118.355 148.655 111.025 148.655Z" fill="#100F0D"/>
<path d="M119.456 86.0013L119.47 86.0546C119.47 90.2933 115.696 97.4667 111.03 97.4667C106.363 97.4667 102.576 90.2933 102.576 86.0546L102.603 86.0013C105.15 86.8147 108.016 87.2813 111.03 87.2813C114.055 87.2813 116.91 86.8147 119.456 86.0013Z" fill="#F8F8F8"/>
<path d="M111.03 61.4947C121.697 61.4947 130.363 67.268 130.363 74.388C130.363 79.4947 125.91 83.9067 119.457 86.0013C116.91 86.8147 114.055 87.2813 111.03 87.2813C108.017 87.2813 105.15 86.8147 102.603 86.0013V85.988C96.1499 83.9067 91.6965 79.4947 91.6965 74.388C91.6965 67.268 100.35 61.4947 111.03 61.4947Z" fill="#FDEAB3"/>
<path d="M119.803 69.6867C119.803 72.8173 115.874 76.8334 111.025 76.8334C106.178 76.8334 102.249 72.8173 102.249 69.6867C102.249 66.5587 106.178 65.5 111.025 65.5C115.874 65.5 119.803 66.5587 119.803 69.6867Z" fill="#100F0D"/>
<path d="M110.775 68.704C110.897 69.5227 109.79 70.3693 108.306 70.5933C106.819 70.8173 105.511 70.336 105.389 69.516C105.267 68.6973 106.371 67.8507 107.858 67.6267C109.342 67.4027 110.65 67.8854 110.775 68.704Z" fill="white"/>
<path d="M111.025 85.944C101.101 85.944 93.0246 80.76 93.0246 74.388C93.0246 68.0147 101.101 62.832 111.025 62.832C120.951 62.832 129.025 68.0147 129.025 74.388C129.025 80.76 120.951 85.944 111.025 85.944ZM112.025 95.9693V88.5746C114.09 88.5066 116.071 88.232 117.937 87.776C117.243 91.0933 114.79 95.1387 112.025 95.9693ZM104.115 87.776C105.978 88.232 107.962 88.5066 110.025 88.5746V95.9693C107.262 95.1387 104.809 91.0933 104.115 87.776ZM131.691 74.388C131.691 66.5453 122.421 60.1653 111.025 60.1653C99.6286 60.1653 90.3579 66.5453 90.3579 74.388C90.3579 79.8093 94.7926 84.5293 101.295 86.928C101.754 91.5267 105.637 98.804 111.025 98.804C116.415 98.804 120.295 91.5267 120.757 86.928C127.259 84.5293 131.691 79.8093 131.691 74.388Z" fill="#100F0D"/>
<path d="M98.1205 75.6293H87.5978C87.2298 75.6293 86.9312 75.332 86.9312 74.9627C86.9312 74.5947 87.2298 74.296 87.5978 74.296H98.1205C98.4885 74.296 98.7871 74.5947 98.7871 74.9627C98.7871 75.332 98.4885 75.6293 98.1205 75.6293Z" fill="#100F0D"/>
<path d="M88.2326 83.6747C87.9939 83.6747 87.7619 83.5453 87.6445 83.3187C87.4725 82.9933 87.5979 82.5893 87.9232 82.4187L97.8112 77.224C98.1339 77.0533 98.5405 77.1774 98.7099 77.504C98.8819 77.8294 98.7566 78.232 98.4312 78.4027L88.5432 83.5987L88.2326 83.6747Z" fill="#100F0D"/>
<path d="M98.1206 73.0973L97.8112 73.02L87.9232 67.8253C87.5979 67.6547 87.4725 67.2507 87.6445 66.9253C87.8139 66.6 88.2205 66.476 88.5432 66.6453L98.4312 71.84C98.7566 72.0106 98.8819 72.4146 98.7099 72.74C98.5925 72.9666 98.3606 73.0973 98.1206 73.0973Z" fill="#100F0D"/>
<path d="M134.451 75.6293H123.931C123.561 75.6293 123.265 75.332 123.265 74.9627C123.265 74.5947 123.561 74.296 123.931 74.296H134.451C134.822 74.296 135.118 74.5947 135.118 74.9627C135.118 75.332 134.822 75.6293 134.451 75.6293Z" fill="#100F0D"/>
<path d="M133.817 83.6747L133.506 83.5987L123.621 78.4027C123.295 78.232 123.167 77.8294 123.339 77.504C123.511 77.1774 123.915 77.0533 124.241 77.224L134.126 82.4187C134.451 82.5893 134.579 82.9933 134.407 83.3187C134.287 83.5453 134.055 83.6747 133.817 83.6747Z" fill="#100F0D"/>
<path d="M123.931 73.0973C123.691 73.0973 123.459 72.9666 123.339 72.74C123.167 72.4146 123.295 72.0106 123.621 71.84L133.506 66.6453C133.831 66.476 134.235 66.6 134.407 66.9253C134.579 67.2507 134.451 67.6547 134.126 67.8253L124.241 73.02L123.931 73.0973Z" fill="#100F0D"/>
<path d="M87.2764 60.388C87.2764 64.316 84.0924 67.5 80.1644 67.5C76.2377 67.5 73.0537 64.316 73.0537 60.388C73.0537 56.46 76.2377 53.2773 80.1644 53.2773C84.0924 53.2773 87.2764 56.46 87.2764 60.388Z" fill="#100F0D"/>
<path d="M80.1632 58.5C80.1632 59.6654 79.2179 60.6107 78.0539 60.6107C76.8872 60.6107 75.9419 59.6654 75.9419 58.5C75.9419 57.3347 76.8872 56.3894 78.0539 56.3894C79.2179 56.3894 80.1632 57.3347 80.1632 58.5Z" fill="white"/>
<path d="M67.9419 45.2213C75.5486 46.3453 89.5245 49.0827 98.4592 52.6694C101.582 45.5894 102.205 37.4613 99.6859 29.856C99.7565 34.128 99.2432 37.3747 98.4046 39.7933C86.9419 34.3373 76.0739 31.4507 72.2299 30.636C70.3579 33.7627 68.1752 40.352 67.9419 45.2213Z" fill="#100F0D"/>
<path d="M148.996 60.388C148.996 64.316 145.811 67.5 141.884 67.5C137.956 67.5 134.772 64.316 134.772 60.388C134.772 56.46 137.956 53.2773 141.884 53.2773C145.811 53.2773 148.996 56.46 148.996 60.388Z" fill="#100F0D"/>
<path d="M141.882 58.5C141.882 59.6654 140.937 60.6107 139.773 60.6107C138.606 60.6107 137.661 59.6654 137.661 58.5C137.661 57.3347 138.606 56.3894 139.773 56.3894C140.937 56.3894 141.882 57.3347 141.882 58.5Z" fill="white"/>
<path d="M154.109 45.2213C146.501 46.3453 132.527 49.0827 123.59 52.6694C120.47 45.5894 119.845 37.4613 122.363 29.856C122.293 34.128 122.806 37.3747 123.645 39.7933C135.109 34.3373 145.978 31.4507 149.822 30.636C151.694 33.7627 153.877 40.352 154.109 45.2213Z" fill="#100F0D"/>
</g>
<path d="M50.6096 104.96L50.535 105.161C44.6203 102.951 39.4336 100.027 35.5576 96.9654C42.7456 93.192 53.9429 91.8053 57.0136 91.94L58.0736 92.312C56.6856 96.3467 54.2896 100.605 50.6096 104.96Z" fill="#FDEAB3"/>
<path d="M58.0735 92.312L57.0135 91.94C46.1148 90.4106 39.7348 87.4707 33.2295 83.2027C39.1802 80.2613 48.6908 77.752 58.1642 79.0066L59.2975 78.772C60.0188 82.84 59.7895 87.4146 58.0735 92.312Z" fill="#FDEAB3"/>
<path d="M53.6148 66.8946C56.2815 69.9559 58.4335 74.0173 59.2975 78.7719L58.1642 79.0066C47.7069 76.5199 40.4482 73.2306 34.2349 71.0666C39.8762 67.7786 46.0268 65.8879 53.6148 66.8946Z" fill="#FDEAB3"/>
<path d="M84.7952 95.1041C84.2125 102.631 76.8578 110.759 62.3445 108.348C58.2298 107.673 54.2405 106.548 50.5352 105.161L50.6098 104.96C54.2898 100.605 56.6858 96.3467 58.0738 92.312C59.7898 87.4147 60.0192 82.8401 59.2978 78.7721C58.4338 74.0174 56.2818 69.9561 53.6151 66.8947C57.3871 67.3934 61.4965 68.6067 66.0712 70.72C76.6965 75.644 85.4592 86.5907 84.7952 95.1041Z" fill="#CD5C29"/>
<path d="M78.0815 103.488C75.4642 105.537 70.6695 107.701 62.6802 106.376C59.4722 105.841 56.2482 105.013 53.1202 103.957C63.4202 90.5306 62.2589 77.9933 57.2535 69.6613C59.7175 70.2839 62.3655 71.2159 65.2322 72.5426C68.4775 74.0466 71.6575 76.2133 74.4255 78.8039C79.9642 83.9919 83.1722 90.1799 82.8029 94.9559C82.5482 98.2293 80.8269 101.34 78.0815 103.488ZM56.0109 93.9426C54.7455 96.8679 52.9229 99.8973 50.4535 102.997C46.4962 101.455 42.7642 99.5466 39.5269 97.3732C45.5735 95.0319 52.9455 94.0586 56.0109 93.9426ZM37.5429 83.5279C43.0349 81.4706 50.4856 80.0039 57.9042 80.9906C58.0376 81.0066 58.1629 80.9733 58.2869 80.9653C58.5509 83.7839 58.3055 86.8119 57.4255 89.9946L57.2975 89.9559C48.4149 88.7093 42.7615 86.5519 37.5429 83.5279ZM40.2122 71.1386C39.8815 71.0133 39.5576 70.8906 39.2376 70.7706C43.0322 69.1546 47.6855 68.1159 53.5535 68.9293C55.2842 71.1759 56.6629 73.8239 57.5056 76.7772C50.5296 75.0439 45.0535 72.9759 40.2122 71.1386ZM77.1629 75.8852C74.0842 73.0052 70.5429 70.5946 66.9149 68.9132C54.2042 63.0239 43.8162 63.1572 33.2376 69.3399C32.5629 69.7332 32.1802 70.4839 32.2535 71.2613C32.3309 72.0386 32.8549 72.7012 33.5895 72.9559C35.2349 73.5266 36.9562 74.1799 38.7922 74.8772C40.8682 75.6652 43.0509 76.4946 45.4202 77.3239C40.2922 78.1733 35.7069 79.7532 32.3442 81.4132C31.7042 81.7306 31.2789 82.3692 31.2349 83.0866C31.1935 83.7999 31.5269 84.4879 32.1362 84.8786C36.1696 87.5239 40.2695 89.7492 45.5295 91.4399C41.8029 92.2812 37.8522 93.5066 34.6389 95.1933C34.0402 95.5079 33.6415 96.1052 33.5762 96.7799C33.5215 97.3972 33.7509 98.0053 34.2015 98.4239L34.3269 98.5346C41.5269 104.228 51.8789 108.636 62.0269 110.321C71.4482 111.885 77.2975 109.181 80.5509 106.637C84.1722 103.8 86.4482 99.6559 86.7895 95.2666C87.2642 89.2186 83.6602 81.9732 77.1629 75.8852Z" fill="#100F0D"/>
<path d="M171.442 104.96L171.516 105.161C177.431 102.951 182.618 100.027 186.494 96.9654C179.306 93.192 168.108 91.8053 165.038 91.94L163.978 92.312C165.366 96.3467 167.762 100.605 171.442 104.96Z" fill="#FDEAB3"/>
<path d="M163.977 92.312L165.037 91.94C175.936 90.4106 182.316 87.4707 188.821 83.2027C182.871 80.2613 173.36 77.752 163.887 79.0066L162.753 78.772C162.032 82.84 162.261 87.4146 163.977 92.312Z" fill="#FDEAB3"/>
<path d="M168.436 66.8946C165.769 69.9559 163.617 74.0173 162.753 78.7719L163.887 79.0066C174.344 76.5199 181.603 73.2306 187.816 71.0666C182.175 67.7786 176.024 65.8879 168.436 66.8946Z" fill="#FDEAB3"/>
<path d="M137.256 95.1041C137.839 102.631 145.193 110.759 159.707 108.348C163.821 107.673 167.811 106.548 171.516 105.161L171.441 104.96C167.761 100.605 165.365 96.3467 163.977 92.312C162.261 87.4147 162.032 82.8401 162.753 78.7721C163.617 74.0174 165.769 69.9561 168.436 66.8947C164.664 67.3934 160.555 68.6067 155.98 70.72C145.355 75.644 136.592 86.5907 137.256 95.1041Z" fill="#CD5C29"/>
<path d="M139.248 94.9559C138.879 90.1799 142.087 83.9919 147.625 78.8039C150.393 76.2133 153.573 74.0466 156.819 72.5426C159.685 71.2159 162.333 70.2839 164.797 69.6613C159.792 77.9933 158.631 90.5306 168.931 103.957C165.803 105.013 162.579 105.841 159.371 106.376C151.381 107.701 146.587 105.537 143.969 103.488C141.224 101.34 139.503 98.2293 139.248 94.9559ZM182.524 97.3732C179.287 99.5466 175.555 101.455 171.597 102.997C169.128 99.8973 167.305 96.8679 166.04 93.9426C169.105 94.0586 176.477 95.0319 182.524 97.3732ZM164.753 89.9559L164.625 89.9946C163.745 86.8119 163.5 83.7839 163.764 80.9653C163.888 80.9733 164.013 81.0066 164.147 80.9906C171.565 80.0039 179.016 81.4706 184.508 83.5279C179.289 86.5519 173.636 88.7093 164.753 89.9559ZM164.545 76.7772C165.388 73.8239 166.767 71.1759 168.497 68.9293C174.365 68.1159 179.019 69.1546 182.813 70.7706C182.493 70.8906 182.169 71.0133 181.839 71.1386C176.997 72.9759 171.521 75.0439 164.545 76.7772ZM135.261 95.2666C135.603 99.6559 137.879 103.8 141.5 106.637C144.753 109.181 150.603 111.885 160.024 110.321C170.172 108.636 180.524 104.228 187.724 98.5346L187.849 98.4239C188.3 98.0053 188.529 97.3972 188.475 96.7799C188.409 96.1052 188.011 95.5079 187.412 95.1933C184.199 93.5066 180.248 92.2812 176.521 91.4399C181.781 89.7492 185.881 87.5239 189.915 84.8786C190.524 84.4879 190.857 83.7999 190.816 83.0866C190.772 82.3692 190.347 81.7306 189.707 81.4132C186.344 79.7532 181.759 78.1733 176.631 77.3239C179 76.4946 181.183 75.6652 183.259 74.8772C185.095 74.1799 186.816 73.5266 188.461 72.9559C189.196 72.7012 189.72 72.0386 189.797 71.2613C189.871 70.4839 189.488 69.7332 188.813 69.3399C178.235 63.1572 167.847 63.0239 155.136 68.9132C151.508 70.5946 147.967 73.0052 144.888 75.8852C138.391 81.9732 134.787 89.2186 135.261 95.2666Z" fill="#100F0D"/>
<path d="M216.052 90.5558C219.531 91.6745 222.224 95.0358 221.904 99.8091C221.411 107.356 216.451 109.61 211.344 108.876C211.344 110.234 211.038 111.689 210.358 113.142C207.998 118.249 199.691 120.262 191.691 116.702C189.719 127.302 175.691 127.889 170.238 124.461C167.491 130.689 158.386 132.476 153.518 128.516C151.424 134.716 140.224 135.956 136.291 129.702C132.638 135.036 126.411 137.702 116.291 136.702C110.719 136.142 107.291 134.289 105.264 131.996C96.5709 140.277 81.9175 134.862 79.6242 127.702C77.3042 130.862 71.9709 132.862 65.4642 131.702C61.8242 131.049 58.1575 128.582 56.5042 124.996C51.1975 131.369 38.2375 128.128 37.3042 120.369C31.0775 122.649 19.6242 122.036 15.9709 116.542C14.6909 114.622 13.9575 112.756 13.6509 110.996C5.59753 111.61 0.424205 108.022 0.130871 102.036C-0.109129 97.1825 3.70421 93.1558 7.93087 92.3692C9.63754 92.0358 11.4242 92.2491 13.0242 93.1425C13.2375 90.0358 16.7842 84.9292 23.4642 84.9292C27.9042 84.9292 32.7975 87.3692 33.4642 93.5958C39.2509 83.3692 51.6509 87.8892 53.2909 94.1278C58.5175 92.1278 66.0375 95.5038 66.8642 100.982C69.7842 97.5291 74.8509 96.5558 78.6375 96.8625C82.4242 97.1825 85.8909 99.0358 87.9442 101.436C92.2109 95.9158 103.598 98.1278 104.264 104.008C106.758 100.662 110.838 98.3958 115.238 98.0358C121.091 97.5558 126.464 99.9011 129.784 103.089C131.304 97.2091 136.451 94.9691 140.464 94.5425C145.131 94.0358 151.971 96.0358 153.904 102.929C154.798 98.1958 162.291 96.0358 165.024 101.142C165.798 95.8758 169.358 92.0892 175.464 90.7025C179.024 89.8892 182.238 90.2225 184.678 91.7558C186.078 88.3025 189.772 85.0078 194.131 84.7025C199.731 84.3158 206.131 86.1958 207.691 92.2625C210.264 90.1425 213.398 89.6892 216.052 90.5558Z" fill="#E88D3A"/>
<path d="M216.669 90.8131C216.099 97.7838 211.439 99.8772 206.633 99.1878C206.633 100.484 206.341 101.869 205.695 103.253C203.444 108.12 195.528 110.04 187.904 106.646C186.023 116.749 172.655 117.308 167.457 114.042C164.839 119.977 156.163 121.68 151.523 117.904C149.527 123.813 138.855 124.996 135.105 119.036C131.621 124.118 125.688 126.661 116.044 125.708C110.732 125.173 107.465 123.406 105.535 121.222C97.2494 129.113 83.2827 123.953 81.0987 117.13C78.8867 120.141 73.8041 122.048 67.6041 120.942C64.1334 120.32 60.6387 117.969 59.0641 114.55C54.0054 120.624 41.6561 117.537 40.7654 110.141C34.8307 112.313 23.9147 111.729 20.4334 106.493C19.2134 104.665 18.5134 102.886 18.2214 101.209C10.8174 101.772 5.98141 98.6052 5.39741 93.2572C2.30408 94.8625 -0.0585863 98.1852 0.130747 102.036C0.42408 108.023 5.5974 111.61 13.6507 110.996C13.9574 112.756 14.6908 114.622 15.9708 116.542C19.6241 122.036 31.0774 122.649 37.3041 120.369C38.2374 128.128 51.1974 131.369 56.5041 124.996C58.1574 128.582 61.8241 131.049 65.4641 131.702C71.9707 132.862 77.3041 130.862 79.6241 127.702C81.9174 134.862 96.5707 140.277 105.264 131.996C107.291 134.289 110.719 136.142 116.291 136.702C126.411 137.702 132.637 135.036 136.291 129.702C140.224 135.956 151.424 134.716 153.517 128.516C158.385 132.476 167.491 130.689 170.237 124.461C175.691 127.889 189.719 127.302 191.691 116.702C199.691 120.262 207.997 118.249 210.357 113.142C211.037 111.689 211.344 110.234 211.344 108.876C216.451 109.61 221.411 107.356 221.904 99.8091C222.205 95.3291 219.839 92.1171 216.669 90.8131Z" fill="#D87639"/>
<path d="M55.3016 103.311L55.0403 103.117C54.6883 102.693 54.2576 102.344 53.7603 102.105C53.335 100.792 52.463 99.6521 51.1803 98.8494C50.3643 98.3401 49.251 98.0681 48.235 98.1641C48.259 97.9107 48.2776 97.6574 48.2616 97.4134C48.1603 95.9774 47.655 94.8214 46.7016 93.7454C45.1283 91.9707 42.0656 92.0707 40.475 93.7147C39.3043 94.9227 39.167 96.5494 39.7683 97.8747C39.4923 99.0427 39.9176 100.325 40.7203 101.209C41.4096 101.972 42.655 102.324 43.6683 102.257C43.151 103.467 43.047 104.881 43.3963 106.099C44.0883 108.496 46.2763 109.476 48.4896 109.352C49.2976 109.487 50.1336 109.496 51.0083 109.475L51.1363 109.529H51.1416C52.5376 110.103 54.091 109.972 55.3016 108.761C56.6656 107.396 56.943 104.628 55.3016 103.311Z" fill="#F1AC56"/>
<path d="M74.8614 101.936C73.5534 102.236 72.2374 102.856 71.1721 103.735C70.8481 103.527 70.4961 103.352 70.1001 103.191C71.6761 103.835 70.7254 103.415 70.3401 103.223C69.3414 102.723 68.6587 102.573 67.5574 102.457C66.7121 102.369 65.6547 102.681 64.9414 103.123C64.0921 103.649 63.1374 104.617 62.9881 105.636C62.8254 106.743 62.8241 106.916 62.9894 108.02C63.1827 109.324 64.5321 110.431 65.7267 110.759C66.1041 110.863 66.5054 110.899 66.9081 110.881L67.0547 110.936C67.9227 111.164 68.7214 111.06 69.5134 110.808C69.784 111.344 70.1174 111.847 70.5321 112.284C71.0347 113.473 72.0174 114.485 73.4827 114.971C76.108 115.84 79.4454 115.371 81.6427 113.732C84.9574 111.264 86.1667 106.973 83.2254 103.675C81.2681 101.481 77.5161 101.327 74.8614 101.936Z" fill="#F1AC56"/>
<path d="M58.7988 97.4467C57.2668 97.4467 55.9868 98.7254 55.9868 100.259C55.9868 101.792 57.2668 103.071 58.7988 103.071C60.3308 103.071 61.6108 101.792 61.6108 100.259C61.6108 98.7254 60.3308 97.4467 58.7988 97.4467Z" fill="#F1AC56"/>
<path d="M131.687 111.484C130.296 111.484 129.135 112.644 129.135 114.036C129.135 115.428 130.296 116.588 131.687 116.588C133.077 116.588 134.239 115.428 134.239 114.036C134.239 112.644 133.077 111.484 131.687 111.484Z" fill="#F1AC56"/>
<path d="M99.5839 107.409C98.5545 106.953 97.7745 106.699 96.6185 106.673C95.5759 106.649 94.5092 107.076 93.6092 107.543C91.1545 108.813 89.9132 112.199 91.4492 114.608C91.9185 115.341 92.5532 115.92 93.2959 116.292C93.8865 116.925 94.6479 117.396 95.4892 117.576C96.7145 117.837 97.7799 117.625 98.8972 117.073L99.0852 116.952C99.9425 116.283 100.048 116.207 99.3972 116.725C99.7825 116.485 100.139 116.185 100.475 115.88C101.671 114.787 102.281 113.551 102.436 111.927C102.609 110.111 101.188 108.12 99.5839 107.409Z" fill="#F1AC56"/>
<path d="M126.092 106.961C124.392 105.204 122.008 104.384 119.631 104.135C116.631 103.824 114.169 104.677 112.388 107.201C112.176 107.504 111.997 107.812 111.839 108.125C110.523 107.528 108.952 107.441 107.523 107.688C107.209 107.743 106.913 107.843 106.632 107.972C104.676 108.66 103.351 110.817 103.588 112.873C103.848 115.129 105.22 117.027 107.533 117.54C109.519 117.98 111.423 117.472 112.975 116.188L113.007 116.155C114.011 117.261 115.365 118.095 116.972 118.451C117.38 118.543 117.784 118.588 118.189 118.613C119.075 118.777 119.981 118.732 120.821 118.477C120.955 118.488 121.084 118.503 121.22 118.508C126.895 118.748 129.888 110.888 126.092 106.961Z" fill="#F1AC56"/>
<path d="M147.653 103.133C147.625 102.924 147.587 102.716 147.52 102.511C147.163 101.428 146.097 100.34 144.844 100.475C143.481 100.62 142.299 101.119 141.564 102.363C141.164 103.04 141.073 103.769 141.172 104.461C138.944 104.593 137.101 106.291 137.031 108.573C136.972 108.764 136.921 108.953 136.885 109.141C136.552 110.831 137.34 112.912 139.236 113.283C140.459 113.521 141.541 113.623 142.768 113.389C145.027 112.959 146.389 110.893 146.476 108.703C146.499 108.117 146.357 107.559 146.115 107.043C147.135 106.436 147.811 105.287 147.745 104.12L147.756 104.04C147.745 103.66 147.624 102.819 147.653 103.133Z" fill="#F1AC56"/>
<path d="M189.131 97.0519C188.261 97.0519 187.455 97.3519 186.794 97.8399L186.694 97.5852C186.565 97.3106 186.258 96.4532 186.647 97.6279C186.458 97.0586 186.178 96.4119 185.833 95.8972C184.226 93.4932 181.721 92.4986 178.889 92.9252C180.537 92.6772 178.654 92.8892 178.103 93.0732C177.266 93.3519 176.51 93.7452 175.879 94.3759C174.673 95.5812 174.133 97.4599 174.581 99.1159L174.522 99.4626C173.879 99.4279 173.187 99.4985 172.707 99.6732C171.551 100.093 170.823 100.707 170.095 101.579C169.681 101.447 169.251 101.353 168.798 101.353C166.691 101.353 164.903 102.917 164.53 104.928C164.111 104.545 163.645 104.216 163.202 103.977C161.799 103.224 160.249 102.988 158.699 103.383C157.01 103.812 155.599 105.54 155.666 107.317L155.613 107.384C155.026 108.212 155.065 109.373 155.27 110.305C155.497 111.344 156.383 112.259 157.259 112.811C158.275 113.452 159.611 113.699 160.797 113.579C162.165 113.444 163.807 113.096 164.767 112.004C165.358 111.331 165.837 110.657 166.05 109.768C166.105 109.537 166.122 109.321 166.142 109.104C166.883 109.687 167.799 110.052 168.798 110.052C169.478 110.052 170.115 109.875 170.694 109.587C170.925 109.753 171.169 109.896 171.427 110.016C171.841 110.703 172.629 111.42 173.445 111.553C174.619 111.745 175.582 111.956 176.783 111.716C178.553 111.363 179.669 109.649 180.249 108.081C180.47 107.484 180.542 106.889 180.506 106.313C181.341 106.311 182.165 106.207 182.862 106.051C184.147 105.763 185.394 104.871 186.241 103.741C186.973 104.521 187.998 105.02 189.131 105.02C191.303 105.02 193.115 103.208 193.115 101.036C193.115 98.8639 191.303 97.0519 189.131 97.0519Z" fill="#F1AC56"/>
<path d="M202.946 90.5787C202.219 89.2533 201.064 88.516 199.7 87.98C198.595 87.544 197.091 87.396 195.97 87.824C194.127 88.524 192.762 89.9507 192.762 92.036C192.762 92.876 192.991 93.6027 193.376 94.224C193.462 95.2067 193.799 95.84 194.4 96.616C194.794 97.1227 195.43 97.4934 196.015 97.756C197.246 98.3134 198.636 98.8587 199.994 98.34C201.652 97.7067 202.666 96.6333 203.276 94.9827C203.814 93.5307 203.69 91.9333 202.946 90.5787Z" fill="#F1AC56"/>
</g>
<defs>
<clipPath id="clip0_3339_125">
<rect width="221.81" height="136.41" fill="white" transform="translate(0.120117 0.5)"/>
</clipPath>
</defs>
</svg>
